<svg width="65.875000" height="53.125000" viewBox="0 0 65.875 53.125" fill="none" xmlns="http://www.w3.org/2000/svg" xmlns:xlink="http://www.w3.org/1999/xlink">
	<desc>
			Created with Pixso.
	</desc>
	<defs/>
	<path id="Vector" d="M62.1562 0L3.71875 0C2.73291 0.000976562 1.7876 0.393066 1.09033 1.09033C0.393311 1.7876 0.000976562 2.73291 0 3.71875L0 40.9062C0.000976562 41.8921 0.393311 42.8374 1.09033 43.5347C1.7876 44.2319 2.73291 44.624 3.71875 44.625L24.9927 44.625L23.7178 47.8125L18.0625 47.8125C17.7808 47.8125 17.5105 47.9243 17.3113 48.1235C17.1121 48.3228 17 48.5933 17 48.875L17 51L10.625 51C10.3433 51 10.073 51.1118 9.87378 51.311C9.67456 51.5103 9.5625 51.7808 9.5625 52.0625C9.5625 52.3442 9.67456 52.6147 9.87378 52.814C10.073 53.0132 10.3433 53.125 10.625 53.125L55.25 53.125C55.5317 53.125 55.802 53.0132 56.0012 52.814C56.2007 52.6147 56.3125 52.3442 56.3125 52.0625C56.3125 51.7808 56.2007 51.5103 56.0012 51.311C55.802 51.1118 55.5317 51 55.25 51L48.875 51L48.875 48.875C48.875 48.5933 48.7632 48.3228 48.5637 48.1235C48.3645 47.9243 48.0942 47.8125 47.8125 47.8125L42.1572 47.8125L40.8823 44.625L62.1562 44.625C63.1421 44.624 64.0874 44.2319 64.7847 43.5347C65.4817 42.8374 65.874 41.8921 65.875 40.9062L65.875 3.71875C65.874 2.73291 65.4817 1.7876 64.7847 1.09033C64.0874 0.393066 63.1421 0.000976562 62.1562 0ZM46.75 49.9375L46.75 51L19.125 51L19.125 49.9375L46.75 49.9375ZM26.0073 47.8125L27.2822 44.625L38.5928 44.625L39.8677 47.8125L26.0073 47.8125ZM63.75 40.9062C63.7498 41.3286 63.5815 41.7339 63.2827 42.0327C62.9839 42.3315 62.5789 42.4995 62.1562 42.5L3.71875 42.5C3.29614 42.4995 2.89111 42.3315 2.59229 42.0327C2.29346 41.7339 2.12524 41.3286 2.125 40.9062L2.125 38.25L63.75 38.25L63.75 40.9062ZM63.75 36.125L2.125 36.125L2.125 3.71875C2.12524 3.29639 2.29346 2.89111 2.59229 2.59229C2.89111 2.29346 3.29614 2.12549 3.71875 2.125L62.1562 2.125C62.5789 2.12549 62.9839 2.29346 63.2827 2.59229C63.5815 2.89111 63.7498 3.29639 63.75 3.71875L63.75 36.125Z" fill="#2B2B2B" fill-opacity="1.000000" fill-rule="nonzero"/>
	<path id="Vector" d="M28.1042 27.4507C28.2209 27.5269 28.3516 27.5801 28.4888 27.606C28.6257 27.6323 28.7666 27.6309 28.9033 27.6025C29.0398 27.5742 29.1697 27.519 29.2849 27.4409C29.4004 27.3623 29.499 27.2617 29.5757 27.145L37.9429 14.395C38.0974 14.1597 38.1521 13.8721 38.095 13.5962C38.0376 13.3203 37.8733 13.0786 37.6377 12.9238C37.4021 12.769 37.1147 12.7144 36.8389 12.7715C36.5627 12.8291 36.321 12.9932 36.1663 13.229L27.7991 25.979C27.7224 26.0957 27.6697 26.2261 27.6436 26.3633C27.6174 26.5005 27.6187 26.6411 27.647 26.7778C27.6753 26.9146 27.7302 27.0444 27.8086 27.1597C27.8872 27.2754 27.9875 27.374 28.1042 27.4507Z" fill="#2B2B2B" fill-opacity="1.000000" fill-rule="nonzero"/>
	<path id="Vector" d="M39.6948 27.3784C39.9114 27.5591 40.1907 27.646 40.4712 27.6201C40.7517 27.5947 41.0107 27.459 41.1912 27.2422L46.5037 20.8672C46.6628 20.6763 46.75 20.4355 46.75 20.187C46.75 19.9385 46.6628 19.6982 46.5037 19.5073L41.1912 13.1323C41.1021 13.0239 40.9927 12.9346 40.8689 12.8691C40.7451 12.8032 40.6099 12.7627 40.4705 12.75C40.3308 12.7368 40.1902 12.7515 40.0566 12.793C39.9229 12.834 39.7986 12.9019 39.6909 12.9912C39.5833 13.0811 39.4946 13.1909 39.4297 13.3149C39.3647 13.439 39.325 13.5747 39.3127 13.7144C39.3003 13.854 39.3159 13.9946 39.3579 14.1279C39.4001 14.2612 39.4685 14.3853 39.5586 14.4922L44.3044 20.187L39.5586 25.8823C39.3782 26.0986 39.2913 26.3779 39.3169 26.6587C39.3423 26.939 39.4783 27.1982 39.6948 27.3784Z" fill="#2B2B2B" fill-opacity="1.000000" fill-rule="nonzero"/>
	<path id="Vector" d="M24.6836 27.2422C24.7727 27.3506 24.8823 27.4399 25.0059 27.5054C25.1296 27.5713 25.2651 27.6118 25.4045 27.6245C25.5439 27.6377 25.6846 27.623 25.8184 27.5815C25.9521 27.54 26.0764 27.4727 26.1841 27.3833C26.2915 27.2935 26.3804 27.1836 26.4453 27.0596C26.5103 26.9351 26.5498 26.7998 26.5623 26.6602C26.5745 26.5205 26.5591 26.3799 26.5168 26.2466C26.4746 26.1128 26.4065 25.9893 26.3162 25.8823L21.5706 20.187L26.3162 14.4922C26.4065 14.3853 26.4746 14.2612 26.5168 14.1279C26.5591 13.9946 26.5745 13.854 26.5623 13.7144C26.5498 13.5747 26.5103 13.439 26.4453 13.3149C26.3804 13.1909 26.2915 13.0811 26.1841 12.9912C26.0764 12.9019 25.9521 12.834 25.8184 12.793C25.6846 12.7515 25.5439 12.7368 25.4045 12.75C25.2651 12.7627 25.1296 12.8032 25.0059 12.8691C24.8823 12.9346 24.7727 13.0239 24.6836 13.1323L19.3711 19.5073C19.2122 19.6982 19.125 19.9385 19.125 20.187C19.125 20.4355 19.2122 20.6763 19.3711 20.8672L24.6836 27.2422Z" fill="#2B2B2B" fill-opacity="1.000000" fill-rule="nonzero"/>
</svg>
