<svg width="68.000000" height="68.000000" viewBox="0 0 68 68" fill="none" xmlns="http://www.w3.org/2000/svg" xmlns:xlink="http://www.w3.org/1999/xlink">
	<desc>
			Created with Pixso.
	</desc>
	<defs>
		<clipPath id="clip3_111">
			<rect id="Icons/coding" width="68.000000" height="68.000000" fill="white" fill-opacity="0"/>
		</clipPath>
	</defs>
	<rect id="Icons/coding" width="68.000000" height="68.000000" fill="#FFFFFF" fill-opacity="0"/>
	<g clip-path="url(#clip3_111)">
		<path id="Vector" d="M63.2188 7.4375L4.78125 7.4375C3.79541 7.43848 2.8501 7.83057 2.15283 8.52783C1.45581 9.2251 1.06348 10.1704 1.0625 11.1562L1.0625 48.3438C1.06348 49.3296 1.45581 50.2749 2.15283 50.9722C2.8501 51.6694 3.79541 52.0615 4.78125 52.0625L26.0552 52.0625L24.7803 55.25L19.125 55.25C18.8433 55.25 18.573 55.3618 18.3738 55.561C18.1746 55.7603 18.0625 56.0308 18.0625 56.3125L18.0625 58.4375L11.6875 58.4375C11.4058 58.4375 11.1355 58.5493 10.9363 58.7485C10.7371 58.9478 10.625 59.2183 10.625 59.5C10.625 59.7817 10.7371 60.0522 10.9363 60.2515C11.1355 60.4507 11.4058 60.5625 11.6875 60.5625L56.3125 60.5625C56.5942 60.5625 56.8645 60.4507 57.0637 60.2515C57.2632 60.0522 57.375 59.7817 57.375 59.5C57.375 59.2183 57.2632 58.9478 57.0637 58.7485C56.8645 58.5493 56.5942 58.4375 56.3125 58.4375L49.9375 58.4375L49.9375 56.3125C49.9375 56.0308 49.8257 55.7603 49.6262 55.561C49.427 55.3618 49.1567 55.25 48.875 55.25L43.2197 55.25L41.9448 52.0625L63.2188 52.0625C64.2046 52.0615 65.1499 51.6694 65.8472 50.9722C66.5442 50.2749 66.9365 49.3296 66.9375 48.3438L66.9375 11.1562C66.9365 10.1704 66.5442 9.2251 65.8472 8.52783C65.1499 7.83057 64.2046 7.43848 63.2188 7.4375ZM47.8125 57.375L47.8125 58.4375L20.1875 58.4375L20.1875 57.375L47.8125 57.375ZM27.0698 55.25L28.3447 52.0625L39.6553 52.0625L40.9302 55.25L27.0698 55.25ZM64.8125 48.3438C64.8123 48.7661 64.644 49.1714 64.3452 49.4702C64.0464 49.769 63.6414 49.937 63.2188 49.9375L4.78125 49.9375C4.35864 49.937 3.95361 49.769 3.65479 49.4702C3.35596 49.1714 3.18774 48.7661 3.1875 48.3438L3.1875 45.6875L64.8125 45.6875L64.8125 48.3438ZM64.8125 43.5625L3.1875 43.5625L3.1875 11.1562C3.18774 10.7339 3.35596 10.3286 3.65479 10.0298C3.95361 9.73096 4.35864 9.56299 4.78125 9.5625L63.2188 9.5625C63.6414 9.56299 64.0464 9.73096 64.3452 10.0298C64.644 10.3286 64.8123 10.7339 64.8125 11.1562L64.8125 43.5625Z" fill="#2B2B2B" fill-opacity="1.000000" fill-rule="nonzero"/>
		<path id="Vector" d="M29.1667 34.8882C29.2834 34.9644 29.4141 35.0176 29.5513 35.0435C29.6882 35.0698 29.8291 35.0684 29.9658 35.04C30.1023 35.0117 30.2322 34.9565 30.3474 34.8784C30.4629 34.7998 30.5615 34.6992 30.6382 34.5825L39.0054 21.8325C39.1599 21.5972 39.2146 21.3096 39.1575 21.0337C39.1001 20.7578 38.9358 20.5161 38.7002 20.3613C38.4646 20.2065 38.1772 20.1519 37.9014 20.209C37.6252 20.2666 37.3835 20.4307 37.2288 20.6665L28.8616 33.4165C28.7849 33.5332 28.7322 33.6636 28.7061 33.8008C28.6799 33.938 28.6812 34.0786 28.7095 34.2153C28.7378 34.3521 28.7927 34.4819 28.8711 34.5972C28.9497 34.7129 29.05 34.8115 29.1667 34.8882Z" fill="#2B2B2B" fill-opacity="1.000000" fill-rule="nonzero"/>
		<path id="Vector" d="M40.7573 34.8159C40.9739 34.9966 41.2532 35.0835 41.5337 35.0576C41.8142 35.0322 42.0732 34.8965 42.2537 34.6797L47.5662 28.3047C47.7253 28.1138 47.8125 27.873 47.8125 27.6245C47.8125 27.376 47.7253 27.1357 47.5662 26.9448L42.2537 20.5698C42.1646 20.4614 42.0552 20.3721 41.9314 20.3066C41.8076 20.2407 41.6724 20.2002 41.533 20.1875C41.3933 20.1743 41.2527 20.189 41.1191 20.2305C40.9854 20.2715 40.8611 20.3394 40.7534 20.4287C40.6458 20.5186 40.5571 20.6284 40.4922 20.7524C40.4272 20.8765 40.3875 21.0122 40.3752 21.1519C40.3628 21.2915 40.3784 21.4321 40.4204 21.5654C40.4626 21.6987 40.531 21.8228 40.6211 21.9297L45.3669 27.6245L40.6211 33.3198C40.4407 33.5361 40.3538 33.8154 40.3794 34.0962C40.4048 34.3765 40.5408 34.6357 40.7573 34.8159Z" fill="#2B2B2B" fill-opacity="1.000000" fill-rule="nonzero"/>
		<path id="Vector" d="M25.7461 34.6797C25.8352 34.7881 25.9448 34.8774 26.0684 34.9429C26.1921 35.0088 26.3276 35.0493 26.467 35.062C26.6064 35.0752 26.7471 35.0605 26.8809 35.019C27.0146 34.9775 27.1389 34.9102 27.2466 34.8208C27.354 34.731 27.4429 34.6211 27.5078 34.4971C27.5728 34.3726 27.6123 34.2373 27.6248 34.0977C27.637 33.958 27.6216 33.8174 27.5793 33.6841C27.5371 33.5503 27.469 33.4268 27.3787 33.3198L22.6331 27.6245L27.3787 21.9297C27.469 21.8228 27.5371 21.6987 27.5793 21.5654C27.6216 21.4321 27.637 21.2915 27.6248 21.1519C27.6123 21.0122 27.5728 20.8765 27.5078 20.7524C27.4429 20.6284 27.354 20.5186 27.2466 20.4287C27.1389 20.3394 27.0146 20.2715 26.8809 20.2305C26.7471 20.189 26.6064 20.1743 26.467 20.1875C26.3276 20.2002 26.1921 20.2407 26.0684 20.3066C25.9448 20.3721 25.8352 20.4614 25.7461 20.5698L20.4336 26.9448C20.2747 27.1357 20.1875 27.376 20.1875 27.6245C20.1875 27.873 20.2747 28.1138 20.4336 28.3047L25.7461 34.6797Z" fill="#2B2B2B" fill-opacity="1.000000" fill-rule="nonzero"/>
	</g>
</svg>
